<?xml version="1.0" encoding="utf-8"?>
<!-- Generator: Adobe Illustrator 28.1.0, SVG Export Plug-In . SVG Version: 6.00 Build 0)  -->
<svg version="1.1" id="Layer_1" xmlns="http://www.w3.org/2000/svg" xmlns:xlink="http://www.w3.org/1999/xlink" x="0px" y="0px"
	 viewBox="0 0 128 128" style="enable-background:new 0 0 128 128;" xml:space="preserve">
<style type="text/css">
	.st0{fill:#ECEBE9;}
</style>
<g>
	<g>
		<path class="st0" d="M13.1,73.4c-1.5,0-3.1-0.2-4.6-0.7c-1.5-0.5-2.8-1.4-3.8-2.8c-1-1.6-1.5-3.4-1.5-5.2c0.1-5.9,1.5-12,4.3-18.2
			c0.2-0.2,0.3-0.4,0.4-0.4c0.1,0,0.1,0.1,0.1,0.2c0,0,0,0.1,0,0.2c0,0.1-0.1,0.3-0.1,0.5c-0.1,0.2-0.1,0.4-0.2,0.6
			c-0.1,0.2-0.1,0.3-0.2,0.4c-0.6,1.8-1,3.8-1,6c0,2.1,0.7,3.9,2.2,5.4c1.5,1.3,3.2,2,5.1,2.2c2.5,0.2,4.6,0.2,6.5-0.1
			c1.9-0.3,3.7-0.7,5.4-1.2c1.1-0.3,2-0.7,2.9-1.1C28.8,54.9,29,51,29,47.8c0-0.9,0-1.8,0-2.6c-0.5-8.9-1.5-16.4-3.2-22.7l4.7-7.3
			c1.7,6.4,2.9,14,3.4,22.8c0.1,1.8,0.2,4,0.2,6.6c0,8.2-0.5,13.8-1.4,16.7c-0.4,1.2-1.1,2.7-2,4.3c-1.5,2.9-3.9,4.9-7.4,5.9
			C20,72.8,16.6,73.4,13.1,73.4z"/>
		<path class="st0" d="M43.2,41.8c0,2.8-0.3,5.5-1,8.3h3.4v11.2h-8.2c0.4-1.9,0.7-3.9,0.9-6.1l0.1-1.5l0.1-2.3c0-1,0-2,0-3v-1.5
			c-0.2-6.9-1.1-13.7-2.8-20.3l4.7-11.2c0.2,0.7,0.7,3,1.6,6.9s1.3,9.1,1.3,15.7C43.3,39.1,43.3,40.5,43.2,41.8z"/>
		<path class="st0" d="M64.8,34.4c-0.2,0-0.4,0-0.6-0.1c-1-0.4-1.5-1.2-1.7-2.3c-0.1-0.6-0.2-1.3-0.2-1.9c0-0.4,0-0.8,0.1-1.2l2-3.1
			c0,0.4,0,0.8,0,1.2c0,0.4,0,0.9,0.1,1.5c0,0.6,0.3,1.2,0.9,1.8c0.4,0.4,0.9,0.6,1.5,0.6c0.3,0,0.5-0.1,0.7-0.3
			c0.4-0.8,0.6-1.6,0.6-2.4c0-0.2,0-0.5,0-0.7l2.1-3c0,0.8,0.1,1.8,0.4,2.8c0.3,1.1,0.8,1.8,1.7,2.1c0.2,0.1,0.4,0.1,0.5,0.1
			c0.3,0,0.6-0.1,0.9-0.3c0.2-0.7,0.2-1.5,0.2-2.4l2-3.1c0,2.3-0.7,4.6-2.1,6.8c-0.5,0.8-1.1,1.5-1.9,2.1c-0.5,0.2-0.9,0.4-1.3,0.4
			c-0.4,0-0.8-0.2-1.3-0.7c-0.4-0.4-0.8-1.2-1-2.3C67.1,32.9,65.9,34.4,64.8,34.4z"/>
		<path class="st0" d="M80.9,39.6c0.3,0.9,0.6,1.8,0.8,2.7c0.3,1.7,0.5,3.5,0.6,5.2c0.6,1.1,1.4,1.8,2.5,2.2
			c0.6,0.2,1.4,0.3,2.2,0.4v11.2c-0.7,0-1.1,0-1.4-0.1c-1.4-0.3-2.5-1.4-3.3-3.5c-0.6-1.5-1-2.7-1.3-3.6l-2.8,7.3H51.9
			c-0.2,0.2-0.4,0.4-0.5,0.6l-0.2,0.3c0,0.1-0.1,0.2-0.4,0.4l-0.2,0.1v0c0-0.1,0-0.1,0-0.2c0-0.4,0.1-0.8,0.3-1.2h-6.1V50.1h6.5
			l0.2-2.7c0.2-2.4,0.3-4.7,0.3-7.1c0-6-0.6-12-1.7-18l4.1-7.1c1.1,6,1.7,12.1,1.7,18.2c0,2.3-0.1,4.6-0.2,6.9
			c-0.3,3.3-0.9,6.6-1.7,9.8h0.1c2.9-4.1,6.4-7.8,10.5-11c1-0.8,2.1-1.7,3.2-2.4c1.1-0.8,2.2-1.4,3.4-2c1.1-0.5,2.2-0.8,3.3-0.8
			c2,0,3.6,1,5,2.9C80.1,37.6,80.5,38.6,80.9,39.6L80.9,39.6z M77.5,50.1c-0.1-0.6-0.2-1.2-0.4-1.8c-0.3-1.2-0.8-2.4-1.3-3.4
			c-0.6-1.1-1.3-2-2.1-2.7c-0.9-0.7-1.9-1.1-3.2-1.1c-1.3,0-2.7,0.4-4.2,1.3c-1.4,0.8-2.8,1.8-4.1,2.8c-0.6,0.5-1.2,0.9-1.8,1.4
			c-0.6,0.5-1.2,1.1-1.8,1.6c-0.6,0.6-1.2,1.1-1.7,1.6c-0.1,0.1-0.2,0.2-0.3,0.2H77.5z"/>
		<path class="st0" d="M95.3,50.1c0-1.9-0.3-3.7-0.8-5.6c-0.5-1.9-1.4-3.6-2.6-5.1l4.2-7.3c1.2,1.5,2.1,3.3,2.7,5.2
			c0.5,2,0.8,4,0.8,6c0,2.4-0.3,4.7-0.8,6.9l-4.2,11h-8.6V50.1H95.3z M86.7,70.3l4.1-6.8c1.3,0.1,2.5,0.6,3.5,1.6
			c1.1,0.9,1.8,2,2.2,3.1l-4.1,7.2c-0.4-1.1-1-2.2-1.9-3.2C89.6,71.2,88.4,70.6,86.7,70.3z"/>
	</g>
	<g>
		<path class="st0" d="M44.5,90.2l-3.3,8.5H24.7l4-11.2H42c0-1.9-0.3-3.7-0.8-5.6c-0.5-1.9-1.4-3.6-2.6-5.1l4.2-7.3
			c1.2,1.5,2.1,3.3,2.7,5.2c0.5,2,0.8,4,0.8,6c0,1.1-0.1,2.1-0.2,3.2l0.1,0.2c0.5,1.4,1.5,2.4,3,3c0.5,0.2,1.2,0.3,2.1,0.4h0.1v11.2
			c-0.6,0-0.9,0-1.1,0h-0.3c-1.4-0.3-2.5-0.8-3.4-1.6c-0.8-0.8-1.4-1.7-1.7-2.8c-0.3-1.1-0.5-2.2-0.5-3.4
			C44.4,90.7,44.4,90.5,44.5,90.2L44.5,90.2z"/>
		<path class="st0" d="M74.7,90.1c-1.2,1.4-2.3,3.2-3.2,5.4c-0.8,1.1-1.7,2-2.8,2.7c-0.5,0.3-1,0.4-1.5,0.5
			c-0.5,0.1-1.1,0.1-1.6,0.1h-15V87.5h19.6c0.5,0,0.9,0,1.4-0.1c0.4-0.1,0.9-0.2,1.3-0.5c0.5-0.3,0.9-0.7,1.3-1.2
			c-1.8-1-3.2-2.1-4.3-3.4c-1.3-1.5-2.5-2.5-3.7-3c-1.2-0.4-2.4-0.7-3.7-0.7c-0.9,0-1.8,0.1-2.7,0.3c-0.9,0.2-1.7,0.6-2.5,1.1
			c-0.4,0.3-0.6,0.5-0.8,0.8l-0.8,0.9c-0.1,0.1-0.2,0.2-0.2,0.2c-0.1,0-0.1-0.1-0.1-0.2c0-0.3,0.4-1.2,1.1-2.6
			c0.7-1.4,1.7-2.9,3-4.4c1.3-1.6,3-2.6,5.1-3.1c0.7-0.2,1.4-0.2,2.2-0.2c3.1,0,5.9,1.4,8.3,4.2c1.1,1.3,2.5,2.4,4,3.3
			c0.8,0.3,1.7,0.5,2.5,0.5c0.8,0,1.6-0.1,2.4-0.3c0.8-0.2,1.6-0.4,2.4-0.6l-5,8.1c-0.6,0-1.1,0.1-1.6,0.2c0.7,0.3,1.4,0.6,2.3,0.8
			h4.9v11.2c-1.9,0-3.2,0-4,0c-0.8,0-1.4,0-1.6,0c-0.3,0-0.4,0-0.5-0.1c-1.4-0.3-2.7-0.9-3.7-1.9c-0.9-0.9-1.5-2-1.9-3.3
			C74.9,92.3,74.7,91.2,74.7,90.1z M63.3,107.7l4.1-6.8c1.3,0.1,2.4,0.6,3.5,1.6c1.1,0.9,1.8,2,2.2,3.1l-4.1,7.2
			c-0.4-1.1-1.1-2.2-2-3.2C66.2,108.6,64.9,108,63.3,107.7z"/>
		<path class="st0" d="M92.5,82.8l7.3-13.2c1.9,1.2,3.7,2.5,5.4,4c1.2,1,2.5,2.1,3.6,3.3c1.2,1.2,2.1,2.5,2.9,3.9
			c0.4,0.8,0.7,1.7,0.7,2.6c0.1,1.3-0.3,3.1-1.2,5.2c-1.8,4.1-3.1,6.7-4,7.9c-1.5,1.8-3.2,2.7-5.2,2.6c-2.7-0.1-5.1-1.5-7.1-4.2
			c-0.8-1.1-1.6-2-2.3-3c0,0.2,0,0.3,0,0.5c-0.3,2.4-0.9,4-1.7,4.8c-0.8,0.8-1.9,1.3-3.3,1.6c-0.4,0-0.8,0-1.4,0V87.5h0.8
			c0.3,0,0.7-0.1,1.3-0.4C89.7,86.6,91.1,85.1,92.5,82.8z M107.8,87.7c-0.4-0.8-0.9-1.5-1.5-2.2c-2.8-3.3-5.3-5.5-7.3-6.7l-2.8,5
			c0.5,0.4,2,1.3,4.3,2.6c1.8,1,3.6,1.5,5.5,1.5h0.3C106.8,87.8,107.3,87.8,107.8,87.7z"/>
		<path class="st0" d="M115.5,51.2l0-0.3c0-0.3,0-0.6,0-0.8c0-1.9,0.5-3.8,1.6-5.6c0.7-1.4,1.8-2.3,3.2-2.7c0.4-0.1,0.8-0.2,1.2-0.2
			c0.9,0,1.7,0.3,2.4,1l-1.6,4c-0.7-0.7-1.4-1.1-2.3-1.1c-0.2,0-0.4,0-0.6,0c-0.9,0.1-1.7,0.5-2.4,1.1c0.1,0.5,0.1,0.9,0.3,1.3
			c0.5,1.4,1.5,2.2,3,2.3c1.5-0.4,3.1-0.7,4.6-0.9l-1.6,4.2c-5.9,1-9.3,1.7-10.4,2.2l1.5-4.2C114.8,51.5,115.1,51.3,115.5,51.2z
			 M117.2,98.6c0.1-3.9,0.1-7.7,0.3-11.3c-0.1-3.6-0.3-7-0.7-10c-0.4-3.1-1.1-6.4-2.1-10.1l4.7-11.3c0.8,3.3,1.5,6.4,2,9.4
			c0.5,3,0.8,6,0.8,9v1.6c0,1,0,2,0.1,3.1c0,1.4-0.1,2.9-0.2,4.4c-0.1,1.5-0.4,3.2-0.9,5C120.4,90.4,119.1,93.8,117.2,98.6z"/>
	</g>
</g>
</svg>
